<?xml version="1.0" encoding="UTF-8" standalone="no"?>
<svg
   id="Layer_1"
   data-name="Layer 1"
   viewBox="0 0 83.24 88"
   version="1.1"
   sodipodi:docname="craigLogo.svg"
   inkscape:version="1.2.1 (9c6d41e, 2022-07-14)"
   xmlns:inkscape="http://www.inkscape.org/namespaces/inkscape"
   xmlns:sodipodi="http://sodipodi.sourceforge.net/DTD/sodipodi-0.dtd"
   xmlns="http://www.w3.org/2000/svg"
   xmlns:svg="http://www.w3.org/2000/svg">
  <sodipodi:namedview
     id="namedview12476"
     pagecolor="#ffffff"
     bordercolor="#000000"
     borderopacity="0.25"
     inkscape:showpageshadow="2"
     inkscape:pageopacity="0.0"
     inkscape:pagecheckerboard="0"
     inkscape:deskcolor="#d1d1d1"
     showgrid="false"
     inkscape:zoom="11.670455"
     inkscape:cx="27.976631"
     inkscape:cy="44"
     inkscape:window-width="1390"
     inkscape:window-height="1205"
     inkscape:window-x="0"
     inkscape:window-y="25"
     inkscape:window-maximized="0"
     inkscape:current-layer="Layer_1" />
  <defs
     id="defs12457">
    <style
       id="style12455">.cls-1{fill:#fff;}.cls-1,.cls-2,.cls-3{stroke:#1d1d1b;stroke-miterlimit:10;stroke-width:2px;}.cls-2{fill:aqua;}.cls-3{fill:#0f9;}</style>
  </defs>
  <polygon
     class="cls-1"
     points="78.63 43.41 60.06 11.24 22.93 11.24 4.36 43.41 22.93 75.57 60.06 75.57 78.63 43.41"
     id="polygon12459" />
  <polygon
     class="cls-2"
     points="82.08 28 75.68 16.92 62.88 16.92 56.49 28 62.88 39.08 75.68 39.08 82.08 28"
     id="polygon12461" />
  <polygon
     class="cls-3"
     points="26.75 59.83 20.35 48.75 7.55 48.75 1.16 59.83 7.55 70.91 20.35 70.91 26.75 59.83"
     id="polygon12463" />
  <polygon
     class="cls-2"
     points="26.75 28 20.35 16.92 7.55 16.92 1.16 28 7.55 39.08 20.35 39.08 26.75 28"
     id="polygon12465" />
  <polygon
     class="cls-3"
     points="82.08 59.83 75.68 48.75 62.88 48.75 56.49 59.83 62.88 70.91 75.68 70.91 82.08 59.83"
     id="polygon12467" />
  <polygon
     class="cls-3"
     points="54.29 12.08 47.89 1 35.1 1 28.7 12.08 35.1 23.17 47.89 23.17 54.29 12.08"
     id="polygon12469" />
  <polygon
     class="cls-2"
     points="54.29 75.92 47.89 64.83 35.1 64.83 28.7 75.92 35.1 87 47.89 87 54.29 75.92"
     id="polygon12471" />
  <circle
     class="cls-1"
     cx="41.49"
     cy="43.41"
     r="8.68"
     id="circle12473" />
</svg>
